# xmcd
#
# Track frame offsets:
#	150
#	11849
#	24601
#	41233
#	56753
#	70571
#	85057
#	96862
#	111247
#	125700
#	139130
#	155613
#	171835
#
# Disc length: 2470 seconds
#
# Revision: 0
# Processed by: cddbd v1.5.2PL0 Copyright (c) Steve Scherf et al.
# Submitted via: EasyCDDAExtractor 11.9.9.666
#
DISCID=b509a40d
DTITLE=Champion - 15 Anos Na Estrada
DYEAR=1900
DGENRE=Other
TTITLE0=Nosso apartamento
TTITLE1=Aí nóis bebe
TTITLE2=Olha eu aqui de novo
TTITLE3=Pode baixar
TTITLE4=Vai pegar fogo no barraco
TTITLE5=De parar o trânsito
TTITLE6=Tira
TTITLE7=Timidez
TTITLE8=Minha despedida
TTITLE9=Uma geral
TTITLE10=Tudo errado
TTITLE11=Melhor admitir
TTITLE12=Uma noite é tão pouco
EXTD=
EXTT0=
EXTT1=
EXTT2=
EXTT3=
EXTT4=
EXTT5=
EXTT6=
EXTT7=
EXTT8=
EXTT9=
EXTT10=
EXTT11=
EXTT12=
PLAYORDER=
